<svg xmlns:xlink="http://www.w3.org/1999/xlink" xmlns="http://www.w3.org/2000/svg" width="320" height="100" viewBox="0 0 320 100" class="css-1j8o68f"><defs id="SvgjsDefs1869"></defs><g id="SvgjsG1870" featurekey="symbolFeature-0" transform="matrix(1.5873015873015872,0,0,1.5873015873015872,-29.365079365079364,-29.365079365079364)" fill="#FFCD38"><g xmlns="http://www.w3.org/2000/svg" fill="#FFCD38"><path d="M60,31.5c10.217,0,18.5,8.282,18.5,18.499c0,15.741-12.76,28.5-28.5,28.5C34.26,78.5,21.5,65.74,21.5,50 c0-15.74,12.76-28.5,28.5-28.5c0.829,0,1.5-0.67,1.5-1.5c0-0.828-0.671-1.5-1.5-1.5C32.603,18.5,18.5,32.603,18.5,50 C18.5,67.396,32.603,81.5,50,81.5c17.397,0,31.5-14.104,31.5-31.5c0-11.873-9.626-21.5-21.5-21.5c-0.828,0-1.5,0.672-1.5,1.501 C58.5,30.829,59.172,31.5,60,31.5z" fill="#FFCD38"></path></g></g><g id="SvgjsG1871" featurekey="nameFeature-0" transform="matrix(0.8149959452907111,0,0,0.8149959452907111,119.34800231107859,29.925834168918904)" fill="#4A4A4A"><path d="M26.4 12.16 c-1.2 0.24 -2.08 1.28 -4.2 4.8 l-13.56 22.4 l4.48 0 c8.12 0 10.56 -1.6 12.96 -7.8 l0.16 0 l-1.28 8.44 l-24.16 0 c1.24 -0.52 2.68 -2.24 5 -6.08 l12.92 -21.28 l-3.96 0 c-7.56 0 -9.92 1.64 -12.4 7.88 l-0.16 0 l1.28 -8.52 l22.92 0 l0 0.16 z M35.48 36.12 c0 2.16 0.28 3.28 2.28 3.72 l0 0.16 l-7.72 0 l0.36 -2.48 l0 -23.8 c0 -1.6 -1.04 -1.4 -3.6 -0.64 l0 -0.24 l8.88 -4.16 l-0.2 1.8 l0 25.64 z M60.4 36.72 c0 2.16 0.36 2.84 1.56 3.64 l0 0.12 l-7.64 -1.24 s0.04 0 0.04 -0.04 c-1.28 0.68 -2.88 1.08 -4.76 1.08 c-5.84 0 -9.64 -3.56 -9.64 -9.12 c0 -5.84 4.08 -10.8 12.56 -10.8 c2.56 0 5.32 0.48 7.88 1.48 l0 14.88 z M45.04 28.84 c0 5.8 3.04 10.16 7.08 10.16 c1.32 0 2.32 -0.48 3.12 -1.36 c0.04 -0.4 0.08 -0.84 0.08 -1.44 l0 -12.92 c-1.24 -1.36 -2.68 -2.16 -4.6 -2.16 c-3.76 0 -5.68 3.08 -5.68 7.72 z M71.32000000000001 40.64 l-4.36 -1 l0.12 -2.4 l0 -18.64 c0 -1.68 -1.04 -1.44 -3.72 -0.68 l0 -0.24 l9.12 -4.24 l-0.32 1.84 l0 5.32 l4.92 0 l-0.2 0.96 l-4.72 0 l0 17.72 l5.52 -0.16 l0 0.16 l-5.52 1.36 l-0.84 0 z M100.72 36.72 c0 2.16 0.36 2.84 1.56 3.64 l0 0.12 l-7.64 -1.24 s0.04 0 0.04 -0.04 c-1.28 0.68 -2.88 1.08 -4.76 1.08 c-5.84 0 -9.64 -3.56 -9.64 -9.12 c0 -5.84 4.08 -10.8 12.56 -10.8 c2.56 0 5.32 0.48 7.88 1.48 l0 14.88 z M85.36000000000001 28.84 c0 5.8 3.04 10.16 7.08 10.16 c1.32 0 2.32 -0.48 3.12 -1.36 c0.04 -0.4 0.08 -0.84 0.08 -1.44 l0 -12.92 c-1.24 -1.36 -2.68 -2.16 -4.6 -2.16 c-3.76 0 -5.68 3.08 -5.68 7.72 z M118.24000000000001 20.4 c0.8 0 1.44 0.12 2.2 0.48 l-4 6.64 l-0.16 0 c0.92 -2.4 0.16 -4.32 -1.32 -4.32 c-1.84 0 -2.84 2.4 -3.16 5.16 l0 7.92 c0 2.16 0.36 2.92 1.56 3.72 l-6.84 0 l0.2 -2.76 l0 -15.36 c-0.56 -0.36 -1.6 -0.64 -2.44 -0.72 l0 -0.16 l7.72 -0.6 l-0.2 2.96 l0 1.28 l0.52 0 c0.92 -2.56 3.08 -4.24 5.92 -4.24 z M143.08 36.72 c0 2.16 0.36 2.84 1.56 3.64 l0 0.12 l-7.64 -1.24 s0.04 0 0.04 -0.04 c-1.28 0.68 -2.88 1.08 -4.76 1.08 c-5.84 0 -9.64 -3.56 -9.64 -9.12 c0 -5.84 4.08 -10.8 12.56 -10.8 c2.56 0 5.32 0.48 7.88 1.48 l0 14.88 z M127.72 28.84 c0 5.8 3.04 10.16 7.08 10.16 c1.32 0 2.32 -0.48 3.12 -1.36 c0.04 -0.4 0.08 -0.84 0.08 -1.44 l0 -12.92 c-1.24 -1.36 -2.68 -2.16 -4.6 -2.16 c-3.76 0 -5.68 3.08 -5.68 7.72 z M168.32000000000002 23.28 c7.88 1.8 9.44 5.68 9.44 8.64 c0 4.88 -4.08 8.64 -11.12 8.64 c-4.84 0 -8.64 -1.68 -10.8 -3.76 l3.68 -5.84 c-0.52 5.52 4.2 8.96 8.72 8.96 c4.68 0 5.64 -3.44 5.64 -5.56 c0 -3.56 -2.68 -4.56 -7.44 -5.68 c-7.76 -1.8 -9.88 -5.84 -9.88 -9.28 c0 -4.92 4.2 -7.96 10.64 -7.96 c4.64 0 7.96 1.6 10.08 3.64 l-3.8 5.84 c0.72 -5.48 -3.76 -8.88 -8.16 -8.88 c-3.8 0 -4.8 2.6 -4.8 4.84 c0 4.2 3.6 5.44 7.8 6.4 z M201.4 36.72 c0 2.16 0.36 2.84 1.56 3.64 l0 0.12 l-7.64 -1.24 s0.04 0 0.04 -0.04 c-1.28 0.68 -2.88 1.08 -4.76 1.08 c-5.84 0 -9.64 -3.56 -9.64 -9.12 c0 -5.84 4.08 -10.8 12.56 -10.8 c2.56 0 5.32 0.48 7.88 1.48 l0 14.88 z M186.04000000000002 28.84 c0 5.8 3.04 10.16 7.08 10.16 c1.32 0 2.32 -0.48 3.12 -1.36 c0.04 -0.4 0.08 -0.84 0.08 -1.44 l0 -12.92 c-1.24 -1.36 -2.68 -2.16 -4.6 -2.16 c-3.76 0 -5.68 3.08 -5.68 7.72 z M221.64 40 l0.2 -2.76 l0 -15.36 l-3.64 -0.32 l-4.92 0 l0 14.56 c0 2.16 0.28 3.28 2.68 3.72 l0 0.16 l-8.4 0 l0.64 -2.48 l0 -14.2 c0 -1.84 -1.16 -1.76 -3.04 -1.76 l0.2 -0.96 l2.84 0 l0 -0.96 c0 -6.52 5.8 -10.4 11.6 -10.4 c1.56 0 4.08 0.24 7.72 2.04 l-3.76 3.16 c-1.04 -1.24 -3.92 -4.08 -6.76 -4.08 c-2.96 0 -3.72 3.04 -3.72 6.56 l0 3.68 l7.4 0 l6.24 -0.2 l0 15.88 c0 2.16 0.36 2.92 1.56 3.72 l-6.84 0 z M244 20.4 c0.8 0 1.44 0.12 2.2 0.48 l-4 6.64 l-0.16 0 c0.92 -2.4 0.16 -4.32 -1.32 -4.32 c-1.84 0 -2.84 2.4 -3.16 5.16 l0 7.92 c0 2.16 0.36 2.92 1.56 3.72 l-6.84 0 l0.2 -2.76 l0 -15.36 c-0.56 -0.36 -1.6 -0.64 -2.44 -0.72 l0 -0.16 l7.72 -0.6 l-0.2 2.96 l0 1.28 l0.52 0 c0.92 -2.56 3.08 -4.24 5.92 -4.24 z" fill="#4A4A4A"></path></g></svg>
